<svg width="19" height="13" viewBox="0 0 19 13" fill="none" xmlns="http://www.w3.org/2000/svg">
<path d="M18.8253 7.16531C18.901 6.98253 18.9208 6.78141 18.8822 6.58739C18.8436 6.39336 18.7483 6.21515 18.6083 6.07531L13.6083 1.07531C13.5161 0.979797 13.4058 0.903615 13.2837 0.851206C13.1617 0.798797 13.0305 0.771211 12.8977 0.770057C12.765 0.768903 12.6333 0.794205 12.5104 0.844486C12.3875 0.894767 12.2758 0.96902 12.1819 1.06291C12.0881 1.15681 12.0138 1.26846 11.9635 1.39135C11.9132 1.51425 11.8879 1.64593 11.8891 1.77871C11.8902 1.91149 11.9178 2.04271 11.9702 2.16471C12.0227 2.28672 12.0988 2.39706 12.1943 2.48931L15.4883 5.78331H1.90234C1.63713 5.78331 1.38277 5.88866 1.19524 6.0762C1.0077 6.26374 0.902344 6.51809 0.902344 6.78331C0.902344 7.04852 1.0077 7.30288 1.19524 7.49042C1.38277 7.67795 1.63713 7.78331 1.90234 7.78331H15.4883L12.1953 11.0763C12.0998 11.1686 12.0237 11.2789 11.9712 11.4009C11.9188 11.5229 11.8912 11.6541 11.8901 11.7869C11.8889 11.9197 11.9142 12.0514 11.9645 12.1743C12.0148 12.2972 12.0891 12.4088 12.1829 12.5027C12.2768 12.5966 12.3885 12.6708 12.5114 12.7211C12.6343 12.7714 12.766 12.7967 12.8987 12.7956C13.0315 12.7944 13.1627 12.7668 13.2847 12.7144C13.4068 12.662 13.5171 12.5858 13.6093 12.4903L18.6093 7.49031C18.702 7.39721 18.7754 7.28677 18.8253 7.16531Z" fill="white"/>
</svg>
