<svg width="34" height="29" viewBox="0 0 34 29" fill="none" xmlns="http://www.w3.org/2000/svg">
<path d="M0.473145 3.28962H4.34418L10.7802 22.6176H27.9241L33.3462 6.97468C33.4614 6.68157 33.5063 6.36555 33.4775 6.05195C33.4487 5.73835 33.3468 5.43585 33.1802 5.16865C33.0065 4.90979 32.7675 4.70144 32.4874 4.56464C32.2073 4.42785 31.8961 4.3674 31.5851 4.3896H9.88519L10.9371 6.97358H30.8592L26.3762 20.1686H12.5461L6.17413 0.468697H0.474182L0.473145 3.28962Z" fill="#55665B"/>
<path d="M15.1052 28.9606C16.2098 28.9606 17.1052 28.0652 17.1052 26.9606C17.1052 25.8561 16.2098 24.9606 15.1052 24.9606C14.0007 24.9606 13.1052 25.8561 13.1052 26.9606C13.1052 28.0652 14.0007 28.9606 15.1052 28.9606Z" fill="#55665B"/>
<path d="M24.1052 28.9606C25.2098 28.9606 26.1052 28.0652 26.1052 26.9606C26.1052 25.8561 25.2098 24.9606 24.1052 24.9606C23.0007 24.9606 22.1052 25.8561 22.1052 26.9606C22.1052 28.0652 23.0007 28.9606 24.1052 28.9606Z" fill="#55665B"/>
</svg>
