<svg width="90" height="99" viewBox="0 0 90 99" fill="none" xmlns="http://www.w3.org/2000/svg">
<path d="M89.0692 14.5447C86.7502 30.3874 80.782 45.4746 71.6354 58.6165C68.2409 62.1664 64.1145 64.935 59.5426 66.7301C54.9707 68.5253 50.0629 69.3038 45.1599 69.0118C43.4222 69.0115 41.6863 68.903 39.9622 68.6869C35.7761 68.3976 31.6925 67.2596 27.9601 65.3422C24.2277 63.4248 20.9244 60.7681 18.2512 57.5336C9.5604 44.6247 3.86307 29.9374 1.57537 14.5447C1.08809 11.9459 3.74106 9.83433 7.31445 9.88847L44.835 10.9172C45.1576 10.9713 45.487 10.9713 45.8096 10.9172L77.8618 10.0509L83.3301 9.88847C86.9035 9.83433 89.5565 11.9459 89.0692 14.5447Z" fill="#707E75"/>
<path d="M62.55 19.5796L58.4893 37.7172L50.2597 43.0232L40.1892 41.1823L35.0457 31.4909L30.7144 23.2612C34.4003 19.757 38.4475 16.6535 42.7881 14.0029L51.884 16.6018L62.55 19.5796Z" fill="#8CD672"/>
<path d="M51.884 16.6014L50.0929 24.6643C49.7141 26.3675 48.6794 27.8528 47.2131 28.7986L41.2721 32.6286L35.0457 31.4916L30.7144 23.262C34.4003 19.7577 38.4475 16.6542 42.7881 14.0037L51.884 16.6014Z" fill="#ACEA9D"/>
<path d="M38.1841 5.93576L36.7764 16.3852L34.0693 18.1178H34.0152L26.1104 12.7577C25.4946 9.48785 25.1326 6.1753 25.0276 2.84966C24.9091 1.87766 25.0984 0.892978 25.569 0.0342616C28 -0.135298 30.434 0.317608 32.6413 1.3502C34.8486 2.3828 36.7563 3.961 38.1841 5.93576Z" fill="#8CD672"/>
<path d="M35.3227 8.69746L34.0774 18.1182H34.0233L26.1185 12.7581C25.5027 9.48829 25.1407 6.17574 25.0356 2.8501C27.0884 2.9512 29.0888 3.533 30.8755 4.54864C32.6623 5.56429 34.1856 6.98538 35.3227 8.69746Z" fill="#ACEA9D"/>
<path d="M64.5522 12.7576L56.6474 18.1177L55.5104 17.4138L53.832 16.3851L52.4243 5.93567C53.8158 3.59885 56.0095 1.84774 58.5965 1.00873H58.759C60.7715 0.287704 62.903 -0.0430535 65.0395 0.0341716C66.6096 1.82086 64.5522 12.7576 64.5522 12.7576Z" fill="#8CD672"/>
<path d="M61.1954 13.5701L55.5104 17.4142L53.832 16.3855L52.4243 5.93603C53.8158 3.59921 56.0095 1.8481 58.5965 1.00909H58.759C59.7279 0.880007 60.7054 0.825704 61.6826 0.846664C63.2528 2.63336 61.1954 13.5701 61.1954 13.5701Z" fill="#ACEA9D"/>
<path d="M67.2095 92.942C67.426 94.2414 66.1266 95.3243 64.3399 95.2702L45.6067 94.7287H45.0653L26.3321 95.2702C24.5454 95.3243 23.246 94.2414 23.4626 92.942C23.5452 92.4494 23.6537 91.9615 23.7874 91.4802C25.0073 84.3099 27.7388 77.4812 31.8005 71.4476C33.1244 69.8624 34.7479 68.554 36.5781 67.5971C38.4083 66.6401 40.4093 66.0536 42.4665 65.8709H42.6289C46.0819 65.4592 49.5834 65.8483 52.8618 67.0079C55.0649 67.758 57.015 69.108 58.4926 70.9062C63.0776 77.4708 66.0628 85.0173 67.2095 92.942Z" fill="#55665B"/>
<path d="M61.7413 89.2604C61.9579 90.5598 60.6584 91.6426 58.8718 91.5885L40.1385 91.0471H39.5971L23.7876 91.4802C25.0075 84.3099 27.739 77.4812 31.8006 71.4476C33.1246 69.8624 34.7481 68.554 36.5783 67.5971C38.4085 66.6401 40.4095 66.0536 42.4667 65.8709H42.6291C46.0821 65.4592 49.5835 65.8483 52.862 67.0079C52.9161 67.0621 52.9703 67.1703 53.0244 67.2245C57.6089 73.7894 60.5941 81.3357 61.7413 89.2604Z" fill="white" fill-opacity="0.16"/>
<path d="M44.7412 68.4701L44.6871 68.9574L41.7092 96.6241L25.25 98.6815C24.8778 98.7445 24.4961 98.7213 24.1343 98.6137C23.7724 98.506 23.4401 98.3168 23.163 98.0605C22.8858 97.8042 22.6711 97.4878 22.5354 97.1355C22.3998 96.7832 22.3467 96.4045 22.3805 96.0285C22.3768 95.9991 22.3798 95.9693 22.3891 95.9412C22.3985 95.9131 22.414 95.8874 22.4346 95.8661C23.5509 87.2071 26.366 78.8539 30.7184 71.2855C31.6931 69.7963 32.965 68.5245 34.4542 67.5497C34.913 67.1998 35.4022 66.8918 35.916 66.6293H35.9702C36.3141 66.4166 36.6765 66.2354 37.053 66.0879C37.4226 65.9198 37.8023 65.7751 38.19 65.6547C39.2317 65.3132 40.3003 65.0596 41.3844 64.8967L44.7412 68.4701Z" fill="#55665B"/>
<path d="M58.5494 13.0282C58.4412 16.1128 57.116 19.0291 54.8636 21.1394C52.6113 23.2498 49.615 24.3824 46.5298 24.2898C44.7944 24.3114 43.0745 23.9601 41.4865 23.2595C39.8986 22.5589 38.4796 21.5255 37.3257 20.2291L37.2715 20.175C35.5014 18.2147 34.518 15.6694 34.5103 13.0282C34.5592 11.4993 34.9091 9.99501 35.5398 8.60139C36.1705 7.20776 37.0697 5.9521 38.1859 4.90621C39.3022 3.86032 40.6137 3.0447 42.0454 2.50599C43.4771 1.96728 45.001 1.71603 46.5298 1.76662C48.7121 1.7503 50.86 2.31061 52.7562 3.39089C54.4848 4.34498 55.9309 5.73862 56.9482 7.43087C57.9654 9.12312 58.5178 11.054 58.5494 13.0282Z" fill="#B4E0C5"/>
<path d="M55.6799 10.6459C55.6309 12.1749 55.2811 13.6791 54.6504 15.0728C54.0197 16.4664 53.1205 17.722 52.0042 18.7679C50.8879 19.8138 49.5764 20.6294 48.1447 21.1682C46.713 21.7069 45.1891 21.9581 43.6603 21.9075C41.4366 21.9248 39.249 21.3452 37.3256 20.2291L37.2715 20.175C35.5014 18.2147 34.518 15.6694 34.5103 13.0282C34.5592 11.4993 34.9091 9.99501 35.5398 8.60139C36.1705 7.20776 37.0697 5.9521 38.1859 4.90621C39.3022 3.86032 40.6137 3.0447 42.0454 2.50599C43.4771 1.96728 45.001 1.71603 46.5298 1.76662C48.7121 1.7503 50.86 2.31061 52.7562 3.39089C54.636 5.33773 55.6846 7.93966 55.6799 10.6459Z" fill="white"/>
<path d="M46.5301 13.0029C50.0379 13.0029 52.8816 10.4822 52.8816 7.37268C52.8816 4.26318 50.0379 1.74243 46.5301 1.74243C43.0223 1.74243 40.1787 4.26318 40.1787 7.37268C40.1787 10.4822 43.0223 13.0029 46.5301 13.0029Z" fill="#B4E0C5"/>
<path d="M46.5344 13.0028C48.5961 13.0028 50.2675 11.9595 50.2675 10.6726C50.2675 9.38559 48.5961 8.34229 46.5344 8.34229C44.4726 8.34229 42.8013 9.38559 42.8013 10.6726C42.8013 11.9595 44.4726 13.0028 46.5344 13.0028Z" fill="#55665B"/>
<path d="M75.976 28.1881C75.304 29.5635 74.3668 30.7924 73.2181 31.8043C72.0695 32.8161 70.7322 33.5909 69.283 34.084C67.8339 34.5771 66.3015 34.7788 64.7741 34.6776C63.2467 34.5763 61.7544 34.1741 60.383 33.494C58.7335 32.7653 57.2572 31.695 56.0516 30.3538L55.9975 30.2455C54.5542 28.651 53.6023 26.6733 53.2565 24.5505C52.9107 22.4277 53.1857 20.2502 54.0484 18.2801C55.4238 15.5193 57.8334 13.4131 60.7534 12.4195C63.6734 11.4259 66.8675 11.6252 69.6414 12.9741C70.1995 13.2303 70.7419 13.5196 71.2656 13.8404C71.3271 13.9075 71.4006 13.9625 71.4822 14.0028C73.7939 15.4483 75.5156 17.6695 76.339 20.2686C77.1624 22.8678 77.0337 25.6752 75.976 28.1881Z" fill="#B4E0C5"/>
<path d="M73.5396 26.0765C72.164 28.8371 69.7543 30.9431 66.8344 31.9367C63.9145 32.9303 60.7205 32.7311 57.9466 31.3825C57.2978 31.0722 56.6653 30.7288 56.0516 30.3538L55.9975 30.2455C54.5542 28.651 53.6023 26.6733 53.2565 24.5505C52.9107 22.4277 53.1857 20.2502 54.0484 18.2801C55.4238 15.5193 57.8334 13.4131 60.7534 12.4195C63.6734 11.4259 66.8675 11.6252 69.6413 12.9741C70.1995 13.2303 70.7419 13.5196 71.2656 13.8404C71.3272 13.9075 71.4006 13.9625 71.4822 14.0028C72.9526 15.6028 73.9292 17.5937 74.2942 19.7358C74.6592 21.8779 74.3972 24.0799 73.5396 26.0765Z" fill="white"/>
<path d="M73.1074 20.7107C74.3825 17.8747 72.8226 14.4095 69.6233 12.9711C66.4241 11.5326 62.7968 12.6656 61.5217 15.5016C60.2466 18.3377 61.8064 21.8028 65.0057 23.2413C68.205 24.6797 71.8322 23.5468 73.1074 20.7107Z" fill="#B4E0C5"/>
<path d="M69.3682 22.6463C69.896 21.4725 68.7994 19.8356 66.919 18.9901C65.0386 18.1447 63.0864 18.4108 62.5586 19.5846C62.0309 20.7584 63.1274 22.3953 65.0078 23.2408C66.8882 24.0863 68.8404 23.8201 69.3682 22.6463Z" fill="#55665B"/>
<path d="M68.4511 44.7554C67.7836 46.1283 66.8519 47.3562 65.7094 48.3688C64.567 49.3814 63.2361 50.1588 61.7929 50.6567C60.3497 51.1545 58.8225 51.3629 57.2987 51.2701C55.7749 51.1772 54.2844 50.7849 52.9123 50.1155C51.1871 49.3621 49.662 48.2159 48.4587 46.7681C47.2554 45.3204 46.4073 43.6114 45.9821 41.7776C45.3952 39.5023 45.6054 37.0947 46.5777 34.9556C47.2452 33.5827 48.1769 32.3548 49.3194 31.3422C50.4618 30.3296 51.7927 29.5522 53.2359 29.0543C54.6791 28.5565 56.2063 28.3481 57.7301 28.4409C59.2539 28.5338 60.7444 28.9262 62.1165 29.5956C64.4259 30.5956 66.3591 32.3015 67.639 34.4684C68.6177 35.9808 69.2044 37.7132 69.3462 39.5091C69.488 41.3051 69.1804 43.1081 68.4511 44.7554Z" fill="#FDBE47"/>
<path d="M67.0434 41.3986C65.6837 44.1601 63.2841 46.2696 60.3711 47.2643C57.458 48.259 54.2694 48.0577 51.5046 46.7045C49.2013 45.6686 47.273 43.9483 45.9821 41.7776C45.3952 39.5023 45.6054 37.0947 46.5777 34.9556C47.2452 33.5827 48.1769 32.3548 49.3194 31.3422C50.4618 30.3296 51.7927 29.5522 53.2359 29.0543C54.6791 28.5565 56.2063 28.3481 57.7301 28.4409C59.2539 28.5338 60.7444 28.9262 62.1165 29.5956C64.4259 30.5956 66.3591 32.3015 67.639 34.4684C68.2554 36.7771 68.0447 39.2288 67.0434 41.3986Z" fill="#FFFEDD"/>
<path d="M65.5869 37.3378C66.858 34.5108 65.3031 31.0566 62.1139 29.6227C58.9247 28.1888 55.3089 29.3181 54.0378 32.1451C52.7667 34.9722 54.3217 38.4263 57.5109 39.8602C60.7001 41.2942 64.3159 40.1648 65.5869 37.3378Z" fill="#B4E0C5"/>
<path d="M61.8561 39.2667C62.3821 38.0968 61.289 36.4651 59.4146 35.6224C57.5402 34.7796 55.5942 35.0448 55.0682 36.2148C54.5422 37.3848 55.6352 39.0164 57.5096 39.8592C59.3841 40.702 61.33 40.4367 61.8561 39.2667Z" fill="#55665B"/>
<path d="M30.1752 33.4948C27.9317 34.5656 25.409 34.9064 22.9617 34.4694C20.5145 34.0324 18.2657 32.8395 16.5314 31.0584C16.4776 31.0584 16.4235 31.0043 16.369 30.896C15.6213 30.1037 15.0168 29.1878 14.5823 28.1889C13.4165 25.3238 13.4344 22.1133 14.632 19.2614C15.8296 16.4094 18.1092 14.1487 20.971 12.9749C22.761 12.1459 24.725 11.7622 26.6954 11.8565C28.6658 11.9508 30.5841 12.5203 32.2868 13.5163C32.3409 13.4622 32.3409 13.5163 32.3409 13.5163C34.2018 14.6364 35.6755 16.299 36.564 18.2809C37.73 21.1459 37.7123 24.3565 36.5147 27.2085C35.317 30.0605 33.0372 32.3212 30.1752 33.4948Z" fill="#B4E0C5"/>
<path d="M28.0637 31.7615C26.2332 32.6074 24.2215 32.9859 22.2088 32.8631C20.1961 32.7403 18.2454 32.1199 16.5314 31.0577C16.4776 31.0577 16.4235 31.0035 16.369 30.8953C15.6213 30.103 15.0168 29.1871 14.5823 28.1881C13.4165 25.323 13.4344 22.1126 14.632 19.2606C15.8296 16.4087 18.1092 14.148 20.971 12.9742C22.761 12.1452 24.725 11.7615 26.6954 11.8558C28.6657 11.9501 30.5841 12.5195 32.2868 13.5156C32.3409 13.4615 32.3409 13.5156 32.3409 13.5156C33.1954 14.4009 33.8913 15.4265 34.3983 16.5476C35.5743 19.4052 35.5677 22.6129 34.3799 25.4657C33.1921 28.3184 30.9203 30.5829 28.0637 31.7615Z" fill="white"/>
<path d="M25.5691 23.2408C28.7684 21.8024 30.3283 18.3372 29.0532 15.5012C27.7781 12.6652 24.1508 11.5322 20.9515 12.9706C17.7522 14.4091 16.1924 17.8743 17.4675 20.7103C18.7426 23.5463 22.3699 24.6793 25.5691 23.2408Z" fill="#B4E0C5"/>
<path d="M25.5718 23.2416C27.4522 22.3961 28.5488 20.7592 28.021 19.5854C27.4933 18.4116 25.5411 18.1454 23.6606 18.9909C21.7802 19.8363 20.6837 21.4733 21.2114 22.6471C21.7392 23.8209 23.6914 24.087 25.5718 23.2416Z" fill="#55665B"/>
<path d="M37.6668 50.0967C43.7111 47.3791 46.5502 40.5925 44.008 34.9384C41.4659 29.2844 34.5051 26.9039 28.4608 29.6216C22.4165 32.3392 19.5774 39.1258 22.1196 44.7798C24.6617 50.4339 31.6224 52.8143 37.6668 50.0967Z" fill="#FFFEDD"/>
<path d="M33.0655 39.8598C36.2547 38.4258 37.8097 34.9717 36.5386 32.1446C35.2675 29.3176 31.6518 28.1883 28.4626 29.6222C25.2733 31.0561 23.7184 34.5103 24.9895 37.3373C26.2605 40.1643 29.8763 41.2937 33.0655 39.8598Z" fill="#B4E0C5"/>
<path d="M33.0625 39.8591C34.937 39.0163 36.03 37.3847 35.504 36.2147C34.978 35.0447 33.032 34.7795 31.1576 35.6222C29.2832 36.465 28.1901 38.0966 28.7161 39.2666C29.2422 40.4366 31.1881 40.7018 33.0625 39.8591Z" fill="#55665B"/>
<path d="M34.488 41.749C34.488 41.749 32.5801 46.9326 39.9775 56.0285L42.6364 54.3024L45.2954 52.5769C39.9992 42.1166 34.488 41.749 34.488 41.749Z" fill="#8CD672"/>
<path d="M55.903 41.749C55.903 41.749 57.811 46.9326 50.4141 56.0285L47.7546 54.3024L45.0957 52.5769C50.3919 42.1166 55.903 41.749 55.903 41.749Z" fill="#ACEA9D"/>
<path d="M50.4229 56.0169H40.1359C38.6537 48.3872 39.8791 40.4795 43.601 33.6562C44.0557 32.939 44.6223 32.2992 45.2794 31.7612C45.2794 31.7612 52.4803 37.1213 50.4229 56.0169Z" fill="#8CD672"/>
<path d="M47.3909 56.0172H40.1359C38.6537 48.3875 39.8791 40.4798 43.601 33.6565C45.5506 36.3095 48.6904 42.8065 47.3909 56.0172Z" fill="#ACEA9D"/>
<path d="M89.0793 14.5451C86.76 30.3878 80.7918 45.4749 71.6455 58.6169C68.251 62.1669 64.1245 64.9355 59.5526 66.7306C54.9807 68.5257 50.0729 69.3043 45.1699 69.0122L45.2241 64.9516L45.3323 56.0181C45.3323 56.0181 74.8399 37.718 80.6872 23.641C81.1993 22.4712 81.528 21.2294 81.6618 19.9594C81.8321 18.7107 81.6638 17.4391 81.1745 16.2777L77.8718 10.0513L83.3402 9.88892H83.6109C87.076 9.94252 89.5671 11.9999 89.0793 14.5451Z" fill="#55665B"/>
<path d="M80.6961 23.6399C77.8643 34.8888 71.9421 45.5048 65.1859 54.9341C59.7729 60.8747 52.2553 64.4684 44.2329 64.9504L44.3412 56.0169C44.3412 56.0169 74.8482 37.7169 80.6961 23.6399Z" fill="white" fill-opacity="0.16"/>
<path d="M83.6165 9.88818C83.6708 10.2108 83.6708 10.5402 83.6165 10.8627C83.0209 14.0571 82.3712 17.0891 81.6674 19.9586C81.8377 18.7099 81.6695 17.4384 81.1801 16.277L77.8774 10.0506L83.3458 9.88818H83.6165Z" fill="#707E75"/>
<path d="M44.8204 69.0111C44.4406 69.0201 44.0606 69.002 43.6834 68.9569C41.0791 68.9454 38.4835 68.6549 35.941 68.0907C35.0994 67.9677 34.2672 67.7868 33.4505 67.5492C31.6874 67.1274 29.966 66.5475 28.307 65.8167C27.639 65.5709 26.9879 65.2815 26.3579 64.9504C23.2415 63.4731 20.5015 61.3071 18.3448 58.6158C10.9506 48.2117 5.72173 36.4283 2.96842 23.9648C2.21043 21.0952 1.56072 18.0091 0.965156 14.7606C0.965156 14.7064 0.911014 14.5982 0.911014 14.544C0.790978 13.8018 0.916363 13.0408 1.26813 12.3763C1.6199 11.7118 2.17885 11.1803 2.86013 10.8623C4.00335 10.1796 5.31931 9.84117 6.65009 9.88779L12.1185 10.0502L8.81578 16.2766C3.02256 30.1911 44.6579 56.017 44.6579 56.017L44.8204 69.0111Z" fill="#55665B"/>
<path d="M3.86013 10.863L2.18173 14.0033C2.08446 14.2481 2.0119 14.502 1.96516 14.7613C1.96516 14.7071 1.91101 14.5988 1.91101 14.5447C1.79098 13.8025 1.91636 13.0414 2.26813 12.377C2.6199 11.7125 3.17885 11.181 3.86013 10.863Z" fill="#FDBE47"/>
<path d="M66.5438 64.3156V75.0358C66.5438 80.6666 62.1042 83.103 58.3142 80.829L49.2725 75.4148V63.8825L58.3142 58.5224C58.8842 58.1404 59.5262 57.8788 60.2008 57.7536C60.8755 57.6284 61.5686 57.6422 62.2376 57.7943C62.9067 57.9464 63.5378 58.2334 64.092 58.6379C64.6463 59.0424 65.1121 59.5558 65.461 60.1467C66.2183 61.402 66.5945 62.8504 66.5438 64.3156Z" fill="#94BCA3"/>
<path d="M41.3661 63.8824V75.4146L32.3243 80.8289C28.5344 83.1028 24.0947 80.6664 24.0947 75.0357V64.3155C24.0947 58.6847 28.5344 56.2483 32.3243 58.5223L40.2832 63.2327L41.3661 63.8824Z" fill="#94BCA3"/>
<path d="M65.461 60.1467V70.6502C65.461 76.2269 61.0213 78.7174 57.2314 76.4435L49.2725 71.7331V63.8825L58.3142 58.5224C58.8842 58.1404 59.5262 57.8788 60.2008 57.7536C60.8755 57.6284 61.5686 57.6422 62.2377 57.7943C62.9067 57.9464 63.5378 58.2334 64.092 58.6379C64.6463 59.0424 65.1121 59.5558 65.461 60.1467Z" fill="#B4E0C5"/>
<path d="M40.9411 63.6956L40.2832 71.0291L31.2415 76.4433C30.6696 76.8277 30.0246 77.0899 29.3468 77.2136C28.669 77.3373 27.9729 77.3198 27.3022 77.1623C26.6314 77.0048 26.0004 76.7106 25.4485 76.2981C24.8966 75.8856 24.4357 75.3636 24.0947 74.7649V64.3155C24.0947 58.6847 28.5344 56.2483 32.3243 58.5223L40.9411 63.6956Z" fill="#B4E0C5"/>
<path d="M51.487 65.9401V73.4118C51.4774 74.3372 51.1019 75.2212 50.4424 75.8705C49.7829 76.5198 48.8932 76.8816 47.9678 76.8769H43.0408C42.1238 76.8705 41.2461 76.5034 40.5977 75.8549C39.9492 75.2065 39.5821 74.3288 39.5757 73.4118V65.9401C39.5708 65.0146 39.9326 64.1248 40.5819 63.4654C41.2313 62.8059 42.1154 62.4303 43.0408 62.4209H47.9678C48.9252 62.4342 49.839 62.8231 50.5125 63.5037C51.1381 64.1606 51.487 65.033 51.487 65.9401Z" fill="#94BCA3"/>
<path d="M50.5125 63.5037V70.3798C50.5133 70.8422 50.4229 71.3002 50.2463 71.7276C50.0698 72.1549 49.8106 72.5432 49.4836 72.8702C49.1566 73.1972 48.7683 73.4564 48.341 73.6329C47.9136 73.8095 47.4556 73.8999 46.9932 73.8991H42.0663C41.6002 73.8922 41.14 73.793 40.7125 73.6071C40.285 73.4212 39.8987 73.1524 39.5757 72.8162V65.9401C39.5708 65.0146 39.9326 64.1248 40.5819 63.4654C41.2313 62.8059 42.1154 62.4303 43.0408 62.4209H47.9678C48.9252 62.4342 49.839 62.8231 50.5125 63.5037Z" fill="#B4E0C5"/>
</svg>
