<svg width="20" height="20" viewBox="0 0 20 20" fill="none" xmlns="http://www.w3.org/2000/svg">
<path d="M9.85835 19.4833C7.31735 19.4833 6.97735 19.4723 5.95135 19.4253C5.16541 19.4088 4.38787 19.2601 3.65135 18.9853C3.01893 18.7474 2.44621 18.374 1.97335 17.8913C1.49165 17.418 1.11899 16.8454 0.881348 16.2133C0.606575 15.4768 0.457828 14.6992 0.441348 13.9133C0.392348 12.8853 0.381348 12.5463 0.381348 10.0063C0.381348 7.4663 0.392348 7.1293 0.439348 6.0993C0.455667 5.31284 0.605115 4.53483 0.881348 3.7983C1.11921 3.16656 1.49146 2.59403 1.97235 2.1203C2.44592 1.63874 3.01893 1.2664 3.65135 1.0293C4.38779 0.754248 5.16538 0.605491 5.95135 0.589297C6.98135 0.540297 7.31835 0.529297 9.85735 0.529297C12.3963 0.529297 12.7363 0.540297 13.7633 0.587297C14.5493 0.604043 15.3268 0.752782 16.0633 1.0273C16.6958 1.26471 17.2686 1.63779 17.7413 2.1203C18.2236 2.59351 18.5969 3.16613 18.8353 3.7983C19.1093 4.53504 19.2581 5.31245 19.2753 6.0983C19.3223 7.1253 19.3333 7.4643 19.3333 10.0053C19.3333 12.5463 19.3223 12.8853 19.2753 13.9113C19.2578 14.6971 19.1091 15.4745 18.8353 16.2113C18.5913 16.8404 18.2188 17.4118 17.7417 17.8891C17.2647 18.3663 16.6934 18.739 16.0643 18.9833C15.3278 19.2581 14.5503 19.4068 13.7643 19.4233C12.7373 19.4723 12.3983 19.4833 9.85835 19.4833ZM8.99335 2.1083C7.21935 2.1083 6.87735 2.1223 5.96535 2.1623C5.35601 2.17046 4.75259 2.28309 4.18135 2.4953C3.76277 2.6498 3.38415 2.89617 3.07335 3.2163C2.75299 3.52691 2.50658 3.90558 2.35235 4.3243C2.13991 4.89721 2.02727 5.50231 2.01935 6.1133C1.97035 7.1293 1.96035 7.4293 1.96035 10.0053C1.96035 12.5813 1.97035 12.8843 2.01535 13.8993C2.02299 14.51 2.13563 15.1148 2.34835 15.6873C2.50285 16.1059 2.74923 16.4845 3.06935 16.7953C3.38015 17.1154 3.75877 17.3618 4.17735 17.5163C4.75026 17.7287 5.35536 17.8414 5.96635 17.8493C6.97935 17.8953 7.28335 17.9043 9.85835 17.9043C12.4333 17.9043 12.7373 17.8943 13.7503 17.8493C14.3614 17.8417 14.9665 17.7291 15.5393 17.5163C15.9541 17.3555 16.3309 17.11 16.6454 16.7954C16.96 16.4808 17.2055 16.1041 17.3663 15.6893C17.5791 15.1168 17.6917 14.512 17.6993 13.9013C17.7453 12.8873 17.7543 12.5823 17.7543 10.0093C17.7543 7.4363 17.7443 7.1313 17.6993 6.1183C17.6921 5.50734 17.5798 4.90218 17.3673 4.3293C17.2128 3.91072 16.9665 3.5321 16.6463 3.2213C16.3359 2.90125 15.9576 2.65487 15.5393 2.5003C14.9665 2.28783 14.3613 2.17553 13.7503 2.1683C12.7593 2.1223 12.4583 2.1133 9.85835 2.1133H8.99335V2.1083ZM9.85835 14.7443C8.92126 14.7443 8.00522 14.4664 7.22606 13.9458C6.4469 13.4252 5.83961 12.6852 5.48101 11.8195C5.1224 10.9537 5.02857 10.001 5.21139 9.08196C5.3942 8.16288 5.84545 7.31865 6.50808 6.65602C7.1707 5.9934 8.01493 5.54215 8.93401 5.35934C9.85309 5.17652 10.8057 5.27035 11.6715 5.62896C12.5373 5.98756 13.2772 6.59485 13.7979 7.37401C14.3185 8.15317 14.5963 9.06921 14.5963 10.0063C14.5948 11.2624 14.0951 12.4666 13.2069 13.3548C12.3187 14.243 11.1145 14.7427 9.85835 14.7443ZM9.85835 6.8443C9.23356 6.8443 8.6228 7.02957 8.1033 7.37668C7.58381 7.7238 7.17891 8.21717 6.93981 8.7944C6.70072 9.37163 6.63816 10.0068 6.76005 10.6196C6.88194 11.2324 7.1828 11.7953 7.6246 12.237C8.06639 12.6788 8.62927 12.9797 9.24206 13.1016C9.85484 13.2235 10.49 13.1609 11.0672 12.9218C11.6445 12.6827 12.1378 12.2778 12.485 11.7583C12.8321 11.2388 13.0173 10.6281 13.0173 10.0033C13.0155 9.16632 12.682 8.3642 12.0899 7.77265C11.4978 7.1811 10.6953 6.84835 9.85835 6.8473V6.8443ZM13.8073 5.2643C13.6513 5.2643 13.4988 5.21802 13.369 5.13133C13.2393 5.04463 13.1381 4.9214 13.0784 4.77723C13.0187 4.63306 13.0031 4.47442 13.0335 4.32137C13.064 4.16832 13.1391 4.02773 13.2494 3.91739C13.3598 3.80705 13.5004 3.7319 13.6534 3.70146C13.8065 3.67101 13.9651 3.68664 14.1093 3.74636C14.2535 3.80607 14.3767 3.9072 14.4634 4.03695C14.5501 4.1667 14.5963 4.31925 14.5963 4.4753C14.5966 4.57913 14.5764 4.68199 14.5369 4.778C14.4974 4.87401 14.4393 4.96129 14.366 5.03485C14.2927 5.10841 14.2057 5.1668 14.1098 5.20668C14.014 5.24657 13.9112 5.26717 13.8073 5.2673V5.2643Z" fill="white"/>
</svg>
