<svg width="22" height="20" viewBox="0 0 22 20" fill="none" xmlns="http://www.w3.org/2000/svg">
<path d="M8.17224 19.996C8.17224 19.996 8.23224 7.78696 8.17224 6.52796H12.6932V8.42796C13.1055 7.72142 13.7028 7.14081 14.4207 6.74872C15.1386 6.35663 15.95 6.16792 16.7672 6.20296C19.7422 6.20296 21.9722 8.12896 21.9722 12.267V19.991H17.4522V12.787C17.4522 10.976 16.7982 9.74096 15.1612 9.74096C14.6531 9.7427 14.1579 9.90085 13.7428 10.1939C13.3277 10.487 13.0129 10.9007 12.8412 11.379C12.726 11.7313 12.6758 12.1017 12.6932 12.472V19.996H8.17224ZM1.14924 19.996V6.52196H5.66924V19.995L1.14924 19.996ZM3.38224 4.68396C3.06015 4.70634 2.73692 4.66172 2.43295 4.5529C2.12898 4.44408 1.85086 4.27343 1.61616 4.05172C1.38145 3.83002 1.19526 3.56206 1.06932 3.26477C0.943382 2.96749 0.880437 2.64732 0.884459 2.32448C0.88848 2.00164 0.959381 1.68314 1.09269 1.38909C1.22599 1.09503 1.4188 0.831794 1.65896 0.616001C1.89911 0.400208 2.18139 0.23654 2.48798 0.135328C2.79457 0.0341156 3.11881 -0.00244383 3.44024 0.0279571C3.7633 0.00177066 4.08828 0.0430719 4.39452 0.149236C4.70076 0.255401 4.98157 0.424107 5.21911 0.644634C5.45664 0.865162 5.64571 1.13269 5.77429 1.43022C5.90287 1.72774 5.96815 2.04876 5.966 2.37288C5.96384 2.69699 5.89428 3.01711 5.76175 3.3129C5.62922 3.60869 5.43661 3.87368 5.19616 4.09102C4.95571 4.30837 4.67268 4.47332 4.36505 4.5754C4.05742 4.67747 3.73192 4.71444 3.40924 4.68396H3.38224Z" fill="white"/>
</svg>
