<svg width="96" height="98" viewBox="0 0 96 98" fill="none" xmlns="http://www.w3.org/2000/svg">
<g clip-path="url(#clip0_214_13474)">
<path d="M0.566895 47.1475V36.0329C0.566895 33.5937 1.91836 32.828 3.42087 31.9834C3.60371 31.8807 3.79451 31.7702 4.00915 31.6281L4.13635 31.5334V42.1112C4.14127 42.6857 4.28022 43.2513 4.5423 43.7636C4.80437 44.2758 5.18243 44.7208 5.64681 45.0635L7.96815 47.1159L0.566895 47.1475ZM26.4753 15.7299L46.8506 1.30774C47.2839 1.01193 47.798 0.854881 48.3238 0.857703C48.8496 0.860526 49.3619 1.02308 49.792 1.32352L69.8732 15.7299H26.4753ZM91.902 31.5176L92.0372 31.6202L92.6414 31.9755C94.128 32.8122 95.4635 33.5542 95.4635 36.0092V47.1475H88.746L90.5665 45.5687C90.982 45.2273 91.3185 44.801 91.5531 44.3187C91.7877 43.8365 91.9149 43.3097 91.9259 42.7743V31.5334L91.902 31.5176Z" fill="#55665B"/>
<path d="M95.4715 42.3164V92.9241C95.4707 93.5641 95.3425 94.1977 95.0942 94.7884C94.8459 95.3791 94.4824 95.9152 94.0246 96.3658L93.8179 96.5474C92.9264 97.3476 91.7682 97.7919 90.5665 97.7946H5.47192C4.82977 97.7949 4.19385 97.6695 3.6005 97.4257C3.00714 97.1819 2.46796 96.8244 2.01376 96.3737C1.55553 95.925 1.19166 95.3904 0.943282 94.801C0.694901 94.2115 0.566961 93.5789 0.566895 92.9399V42.3164H95.4715Z" fill="#B4E0C5"/>
<path fill-rule="evenodd" clip-rule="evenodd" d="M5.472 44.0529L47.5423 81.3752L90.5666 44.0608C91.5364 43.2162 92.9038 45.1028 92.9038 46.3737V92.9476C92.8916 93.5593 92.6414 94.1426 92.2057 94.5753C91.77 95.0079 91.1826 95.2563 90.5666 95.2684H5.472C4.85595 95.2563 4.26853 95.0079 3.83283 94.5753C3.39713 94.1426 3.14697 93.5593 3.13477 92.9476V46.3737C3.13477 45.1028 4.51008 43.2162 5.472 44.0608V44.0529Z" fill="#55665B"/>
<path d="M90.5825 45.5923L50.1737 80.0886C49.4894 80.6685 48.6174 80.9838 47.7178 80.9765C46.8181 80.9693 45.9514 80.64 45.2766 80.0491L5.64693 45.0634C5.17827 44.7175 4.79759 44.2674 4.53532 43.7493C4.27306 43.2312 4.13647 42.6594 4.13647 42.0795V19.4478C4.13647 18.4617 4.53097 17.516 5.23317 16.8187C5.93537 16.1215 6.88776 15.7297 7.88083 15.7297H88.1737C88.6661 15.7287 89.1539 15.8241 89.6091 16.0105C90.0643 16.1969 90.478 16.4706 90.8265 16.8159C91.175 17.1613 91.4516 17.5715 91.6402 18.0231C91.8289 18.4747 91.926 18.9588 91.926 19.4478V42.7742C91.9243 43.3099 91.8062 43.839 91.5798 44.3254C91.3535 44.8117 91.0241 45.2438 90.6143 45.5923H90.5825Z" fill="#B4E0C5"/>
<path fill-rule="evenodd" clip-rule="evenodd" d="M47.7491 77.2704L88.1579 42.7742V19.4478H49.0369H7.88086V42.1111L47.7491 77.2704Z" fill="white"/>
<path fill-rule="evenodd" clip-rule="evenodd" d="M47.7491 77.2704L88.1579 42.7742V19.4478H49.0369H7.88086V42.1111L47.7491 77.2704Z" fill="white"/>
<path d="M0.503418 42.632L0.598815 35.6538C19.6386 52.1678 33.8925 64.4428 47.7808 76.4967L95.4796 36.5695V43.6029L62.2653 71.4131L94.0645 96.2867C92.3156 98.3391 89.072 97.7944 87.2277 97.7944L58.0202 74.9653L49.6013 82.0146C49.1089 82.4688 48.465 82.7265 47.793 82.7381C47.121 82.7498 46.4684 82.5146 45.9603 82.0777L36.8976 74.1838L6.57706 97.7944C3.68333 98.0155 2.09338 96.8077 1.1394 95.2052L32.7398 70.5921L0.503418 42.632Z" fill="white"/>
<path fill-rule="evenodd" clip-rule="evenodd" d="M47.8444 37.8485C50.1657 35.4803 51.8193 33.3727 55.3649 32.9622C62.0824 32.1728 68.2594 39.0247 64.8649 45.7424C63.903 47.6606 61.9314 49.934 59.7611 52.168C57.3762 54.623 54.7368 57.0227 52.8845 58.8462L47.8444 63.8115L43.6787 59.8645C38.6624 55.0335 30.49 49.0104 30.2197 41.527C30.0289 36.2855 34.1946 32.9306 38.9645 32.9938C43.2414 33.049 45.0381 35.1646 47.8285 37.8485H47.8444Z" fill="#B4E0C5"/>
</g>
<defs>
<clipPath id="clip0_214_13474">
<rect width="95" height="97" fill="white" transform="translate(0.503418 0.857666)"/>
</clipPath>
</defs>
</svg>
