<svg width="18" height="22" viewBox="0 0 18 22" fill="none" xmlns="http://www.w3.org/2000/svg">
<path d="M7.67894 14.4253C7.12294 17.3413 6.44295 20.1373 4.43095 21.5983C3.80995 17.1903 5.34295 13.8793 6.05495 10.3653C4.84095 8.32127 6.20094 4.20827 8.76194 5.22227C11.9129 6.46827 6.03295 12.8223 9.97995 13.6133C14.1009 14.4413 15.7799 6.46327 13.2279 3.86927C9.53595 0.123268 2.48095 3.78427 3.34795 9.14727C3.55895 10.4583 4.91395 10.8563 3.88895 12.6663C1.52595 12.1423 0.820945 10.2793 0.911945 7.79427C1.05795 3.72727 4.56595 0.880267 8.08495 0.486267C12.5349 -0.0137333 16.7109 2.11927 17.2849 6.30527C17.9339 11.0303 15.2759 16.1463 10.5179 15.7793C9.22994 15.6783 8.68994 15.0403 7.67894 14.4253Z" fill="white"/>
</svg>
