<svg width="44" height="31" viewBox="0 0 44 31" fill="none" xmlns="http://www.w3.org/2000/svg">
<path fill-rule="evenodd" clip-rule="evenodd" d="M24.1443 10.4796C24.1443 5.07484 28.4953 0.723717 33.9001 0.723717L33.9001 0.723145C39.2592 0.723145 43.6103 5.07468 43.5643 10.4798C43.5643 22.5716 34.7243 28.3426 29.4572 30.7244C27.6253 31.5487 25.6099 30.1745 25.6099 28.2052C25.6099 27.2432 26.1594 26.3272 27.0297 25.8234C30.1444 23.9454 31.9764 21.9758 32.9841 20.1439C28.0376 19.6858 24.1443 15.5636 24.1443 10.4796ZM0.0981445 10.4795C0.0981445 5.07473 4.44935 0.723603 9.80821 0.723603L9.80813 0.723849C15.2129 0.723849 19.564 5.07489 19.564 10.4797C19.564 22.5257 10.7246 28.3422 5.41112 30.7243C3.57919 31.5486 1.56381 30.1744 1.56381 28.2051C1.56381 27.2431 2.11328 26.3271 2.9836 25.8233C6.09832 23.9453 7.93032 21.9757 8.93797 20.1437C3.9915 19.6857 0.0981445 15.5635 0.0981445 10.4795Z" fill="white"/>
</svg>
