<svg width="30" height="30" viewBox="0 0 30 30" fill="none" xmlns="http://www.w3.org/2000/svg">
<path d="M28.2299 28.0777L20.8029 20.6507M13.3739 24.3637C11.1705 24.3635 9.01663 23.7099 7.18466 22.4857C5.35269 21.2614 3.92487 19.5214 3.08176 17.4857C2.23865 15.45 2.0181 13.21 2.44801 11.0489C2.87792 8.88788 3.93898 6.90283 5.49701 5.34479C7.05505 3.78676 9.0401 2.7257 11.2011 2.29579C13.3622 1.86588 15.6022 2.08642 17.6379 2.92954C19.6736 3.77265 21.4136 5.20046 22.6379 7.03244C23.8621 8.86441 24.5157 11.0183 24.5159 13.2217C24.516 14.6849 24.2279 16.1338 23.668 17.4857C23.1081 18.8376 22.2874 20.0659 21.2528 21.1005C20.2181 22.1352 18.9898 22.9559 17.6379 23.5158C16.286 24.0757 14.8371 24.3638 13.3739 24.3637Z" stroke="#55665B" stroke-width="3"/>
</svg>
