<svg width="84" height="99" viewBox="0 0 84 99" fill="none" xmlns="http://www.w3.org/2000/svg">
<path fill-rule="evenodd" clip-rule="evenodd" d="M11.2236 51.2281C25.8735 41.3742 35.1184 31.6428 39.4053 21.9793L38.1592 22.6919L35.2805 17.9205C34.9205 17.3248 34.5774 16.7875 34.2211 16.2314C32.8223 14.0502 31.25 11.5938 30.4714 8.98096C13.9553 15.2756 4.09763 28.1326 5.26268 51.2299L5.31735 51.2281H11.2236ZM73.2275 51.2281C58.5928 41.3855 49.3554 31.6636 45.0609 22.0095L47.0743 20.8576L48.1432 20.2619C48.8143 19.8943 49.5627 19.4833 50.3394 19.0177C50.8767 18.6935 51.4083 18.3522 51.8947 17.9959C52.4075 17.6246 52.8581 17.2419 53.2012 16.8592C53.8515 16.1277 54.2154 15.3001 54.3398 14.4631C54.4605 13.6449 54.3492 12.8249 54.0551 12.0783L54.0118 11.969C54.4114 11.2243 54.6603 10.4533 54.7734 9.68413C54.7923 9.55971 54.8073 9.4334 54.8186 9.30898C70.8296 15.7149 80.3328 28.5266 79.1885 51.2299L79.1338 51.2281H73.2275ZM69.1367 42.9577C69.4251 43.1821 69.476 43.5987 69.2517 43.8871C69.1438 44.0258 68.9854 44.1159 68.8111 44.1379C68.6369 44.1598 68.4611 44.1116 68.3223 44.004C63.4283 40.194 59.3261 36.3954 55.995 32.6099C52.6526 28.8131 50.0812 25.0201 48.2563 21.2347C48.1801 21.0766 48.1697 20.8948 48.2273 20.7291C48.2849 20.5634 48.4058 20.4273 48.5636 20.3505C48.8935 20.1922 49.2894 20.3298 49.4477 20.6597C51.2179 24.3321 53.7234 28.0251 56.9904 31.7352C60.265 35.4584 64.3068 39.1987 69.1367 42.9577ZM79.1866 52.772L79.509 56.0786H73.7931L74.1418 52.7739H79.1338L79.1866 52.772ZM79.6598 57.6226L83.5112 97.0891H69.4553L73.6291 57.6264H79.5825L79.6598 57.6226ZM16.1289 44.004C15.9901 44.1116 15.8143 44.1598 15.64 44.1379C15.4658 44.1159 15.3073 44.0258 15.1995 43.8871C15.0916 43.7486 15.0431 43.5729 15.0647 43.3986C15.0863 43.2244 15.1761 43.0658 15.3145 42.9577C20.1444 39.1987 24.1862 35.4584 27.4627 31.7352C30.7278 28.0251 33.2332 24.3321 35.0034 20.6597C35.0412 20.5813 35.094 20.5112 35.1588 20.4532C35.2237 20.3952 35.2993 20.3506 35.3814 20.3219C35.4636 20.2932 35.5505 20.281 35.6374 20.2859C35.7242 20.2908 35.8092 20.3127 35.8876 20.3505C36.2156 20.5089 36.3532 20.9048 36.1949 21.2347C34.37 25.0201 31.7986 28.8131 28.4562 32.6099C25.125 36.3954 21.0229 40.194 16.1289 44.004ZM5.26457 52.772L4.9422 56.0786H10.6581L10.3093 52.7739H5.31735L5.26457 52.772ZM4.79138 57.6226L0.939941 97.0891H14.9959L10.8221 57.6264H4.86868L4.79138 57.6226Z" fill="#55665B"/>
<path fill-rule="evenodd" clip-rule="evenodd" d="M42.9023 4.89584C44.5782 3.87972 45.813 2.94278 47.8942 3.25384C51.0538 3.72325 53.2576 6.95823 52.4357 9.92929C51.789 9.42595 51.0105 9.07342 50.1565 8.94711C48.85 8.75293 47.9734 9.06022 47.1025 9.54094C46.4634 8.54745 45.7489 7.79149 44.1823 7.35035L43.9466 7.28814C42.8061 7.0261 41.6354 7.17126 40.6513 7.68969C39.6484 8.2232 38.8529 9.14128 38.4947 10.4062L38.4344 10.6457C37.7821 13.4829 39.4674 16.2258 40.9379 18.522L38.9471 19.6606L37.1996 16.765C35.0995 13.2793 31.4007 8.60966 32.3886 4.31708C33.0804 1.30832 35.9421 0.0301641 38.6361 0.789895C41.0435 1.46856 41.7391 2.94278 42.9023 4.89584Z" fill="#B4E0C5"/>
<path fill-rule="evenodd" clip-rule="evenodd" d="M46.6612 11.3188C47.7716 10.6458 48.5898 10.0256 49.9679 10.2311C52.5562 10.6156 54.1775 13.8054 52.2301 15.9979C51.6758 16.6219 50.7125 17.2817 49.6738 17.9057C48.5351 18.59 47.3041 19.2291 46.4294 19.7305L44.0408 21.0954L42.8852 19.1782C41.4939 16.8707 39.0451 13.779 39.6992 10.9361C40.1573 8.94348 42.052 8.09703 43.8372 8.60038C45.4302 9.04905 45.8902 10.0256 46.6612 11.3188Z" fill="#B4E0C5"/>
<path fill-rule="evenodd" clip-rule="evenodd" d="M22.3193 67.0298V70.8106C22.3193 71.0346 22.5113 71.2266 22.7331 71.2266H39.8128V87.0931C39.662 87.1731 39.5271 87.2874 39.3922 87.4017L26.7676 98.1405H31.9198L39.8128 92.0282V98.1383H45.932V92.1837L53.6741 98.1405H58.8241L46.1995 87.4017C46.1103 87.3263 46.0257 87.2462 45.932 87.1822V71.2266H61.718C61.942 71.2266 62.1317 71.0391 62.1317 70.8106V67.0298H22.3193Z" fill="#B4E0C5"/>
<path fill-rule="evenodd" clip-rule="evenodd" d="M41.1869 45.049L42.745 52.4794L50.1609 54.1027L43.5759 57.8807L44.3224 65.4343L38.694 60.3398L31.7419 63.3859L34.8484 56.4579L29.8022 50.7861L37.3509 51.6001L41.1869 45.049ZM33.5584 48.6241H33.4352C33.4352 47.6144 33.0584 46.7327 32.3047 45.979C31.5487 45.2278 30.667 44.851 29.6597 44.851V44.7278C30.667 44.7278 31.5487 44.3509 32.3023 43.5973C33.056 42.8412 33.4328 41.9595 33.4328 40.9546H33.556C33.556 41.9619 33.9329 42.8436 34.6865 43.5973C35.4402 44.3509 36.3219 44.7278 37.3292 44.7278V44.851C36.3219 44.851 35.4402 45.2278 34.6865 45.9815C33.9353 46.7351 33.5584 47.6144 33.5584 48.6241ZM51.8204 52.4504H51.6295C51.6295 50.8972 51.0498 49.5396 49.8879 48.3802C48.726 47.2207 47.3708 46.6409 45.8176 46.6409V46.4501C47.3708 46.4501 48.7284 45.8703 49.8879 44.706C51.0498 43.5393 51.6295 42.1841 51.6295 40.6357H51.8204C51.8204 42.189 52.4001 43.5465 53.562 44.706C54.7239 45.8655 56.0791 46.4477 57.6323 46.4477V46.6385C56.0791 46.6385 54.7239 47.2182 53.562 48.3777C52.4001 49.5396 51.8204 50.8972 51.8204 52.4504Z" fill="#55665B"/>
</svg>
