<svg width="28" height="28" viewBox="0 0 28 28" fill="none" xmlns="http://www.w3.org/2000/svg">
<path d="M1.99132 27.4979C2.39281 27.4562 2.76152 27.2575 3.01705 26.945C3.27257 26.6325 3.39417 26.2317 3.35532 25.8299C3.27932 24.9579 3.43131 22.9879 4.41631 22.4949C5.04276 22.2198 5.68891 21.9918 6.34932 21.8129C8.84932 21.0129 11.9583 20.0699 12.5643 17.3029C12.5956 17.1921 12.6084 17.0769 12.6023 16.9619C12.5651 15.7962 12.0915 14.687 11.2753 13.8539C10.3116 12.3643 9.79838 10.6281 9.79732 8.85391C9.87332 7.83091 10.3653 5.59492 11.4263 4.79892C11.5023 4.72292 11.5403 4.72292 11.6163 4.64792C12.2758 4.17078 13.0771 3.93046 13.8903 3.96592H13.9283C14.7562 3.90522 15.5779 4.14761 16.2403 4.64792C16.2938 4.70953 16.3582 4.76072 16.4303 4.79892C17.5673 5.63292 17.9843 8.02091 18.0603 8.85391C18.0778 10.6308 17.5631 12.3722 16.5823 13.8539C15.7662 14.687 15.2926 15.7962 15.2553 16.9619C15.2492 17.0769 15.2621 17.1921 15.2933 17.3029C15.8993 20.0319 19.0073 21.0169 21.5083 21.8129C22.1687 21.9918 22.8149 22.2198 23.4413 22.4949C24.4263 22.9879 24.5783 24.9579 24.5023 25.8299C24.4635 26.2317 24.5851 26.6325 24.8406 26.945C25.0961 27.2575 25.4648 27.4562 25.8663 27.4979H26.0173C26.3942 27.4991 26.7581 27.3602 27.0382 27.1081C27.3184 26.8561 27.4949 26.5088 27.5333 26.1339C27.7233 24.3529 27.3433 21.0179 24.8043 19.7669C24.0419 19.4227 23.2567 19.1313 22.4543 18.8949C20.9763 18.4399 18.7783 17.7579 18.3613 16.8109C18.4216 16.5101 18.5662 16.2326 18.7783 16.0109C20.1053 14.6839 21.1283 11.5389 21.1283 8.81091V8.69691C21.0903 8.24191 20.7873 4.26291 18.3283 2.40591C17.0966 1.41256 15.5522 0.888785 13.9703 0.927915H13.9323C12.3587 0.866682 10.8187 1.39357 9.61232 2.40591C7.14932 4.26291 6.81232 8.27991 6.77132 8.73491V8.84891C6.77132 11.5779 7.79431 14.7229 9.12131 16.0489C9.33344 16.2706 9.47808 16.5481 9.53832 16.8489C9.08332 17.7959 6.92332 18.4789 5.44532 18.9329C4.6374 19.1525 3.85088 19.4443 3.09531 19.8049C0.556311 21.0559 0.177322 24.3909 0.366322 26.1719C0.407711 26.5635 0.602333 26.9229 0.907719 27.1715C1.21311 27.4201 1.60445 27.5378 1.99631 27.4989L1.99132 27.4979Z" fill="white"/>
</svg>
