<svg width="246" height="246" viewBox="0 0 246 246" fill="none" xmlns="http://www.w3.org/2000/svg">
<path d="M183.792 61.3893C191.837 69.4343 198.219 78.9852 202.573 89.4967C206.927 100.008 209.168 111.274 209.168 122.652C209.168 134.029 206.927 145.295 202.573 155.807C198.219 166.318 191.837 175.869 183.792 183.914L122.53 122.652L183.792 61.3893Z" fill="#FFB5A9"/>
<path d="M183.792 183.914C175.747 191.959 166.196 198.341 155.685 202.695C145.173 207.049 133.907 209.29 122.53 209.29C111.152 209.29 99.8861 207.049 89.3746 202.695C78.8632 198.341 69.3123 191.959 61.2672 183.914L122.53 122.652L183.792 183.914Z" fill="#FF9180"/>
<path d="M61.2672 183.914C45.0195 167.666 35.8915 145.629 35.8915 122.652C35.8915 99.6738 45.0195 77.637 61.2672 61.3893L122.53 122.652L61.2672 183.914Z" fill="#FFB5A9"/>
<path d="M61.2672 61.3893C69.3123 53.3442 78.8632 46.9624 89.3747 42.6085C99.8861 38.2545 111.152 36.0136 122.53 36.0136C133.907 36.0136 145.173 38.2545 155.685 42.6085C166.196 46.9625 175.747 53.3442 183.792 61.3893L122.53 122.652L61.2672 61.3893Z" fill="#FFCBC3"/>
<path d="M118.71 87.6876C113.59 88.8997 109.77 92.4924 108.352 97.5136C107.447 100.803 107.329 105.262 108.116 108.119C108.549 109.764 108.549 110.197 108.116 110.846C107.053 112.447 107.801 116.343 109.416 117.599C109.849 117.945 110.4 118.854 110.637 119.59C111.148 121.235 112.999 124.351 114.22 125.52C114.89 126.169 115.047 126.862 115.047 128.766C115.047 132.922 114.26 133.744 105.753 138.506C98.901 142.315 96.105 144.782 94.2935 148.592C93.2302 150.713 92.2063 154.825 92.2063 156.816C92.2063 157.292 97.7196 157.379 122.53 157.379C147.339 157.379 152.853 157.292 152.853 156.816C152.853 154.825 151.829 150.713 150.766 148.592C148.954 144.782 146.158 142.315 139.306 138.506C130.839 133.744 130.012 132.922 130.012 128.853C130.012 126.819 130.169 126.342 131.39 124.827C132.178 123.918 133.281 122.057 133.871 120.672C134.462 119.33 135.25 117.945 135.683 117.599C137.258 116.3 138.006 112.404 136.943 110.846C136.51 110.153 136.51 109.764 136.982 108.119C137.415 106.82 137.534 105.089 137.415 102.448C137.14 96.3016 134.934 92.3626 131.39 91.7133C130.603 91.5834 129.815 91.1073 129.579 90.6744C129.382 90.2415 128.437 89.3758 127.492 88.7698C125.522 87.5145 121.584 86.9951 118.71 87.6876Z" fill="white"/>
<path d="M94.8842 95.2195C94.0572 95.5225 92.6788 96.5181 91.8125 97.3838C90.9461 98.2495 89.9616 98.9421 89.6465 98.9421C88.5832 98.9421 86.3779 101.539 85.7084 103.617C84.8027 106.474 84.527 111.712 85.1965 114.092C85.6691 115.78 85.6691 116.213 85.1571 117.296C84.6845 118.334 84.6845 118.94 85.0783 120.542C85.3146 121.624 85.866 122.836 86.2598 123.182C86.6536 123.572 87.1655 124.568 87.4412 125.433C87.7169 126.299 88.6226 128.074 89.4496 129.416C91.143 132.056 91.3399 133.355 90.4735 135.259C89.7647 136.731 88.1107 137.943 82.5973 140.887C75.7057 144.609 72.9884 148.375 72.2796 154.998L72.0039 157.379H78.6593H85.3146L85.9447 153.137C87.2837 144.003 91.6549 138.116 101.067 132.749C104.06 131.061 106.383 128.55 106.383 127.078C106.383 126.429 104.532 122.966 103.194 121.018C101.146 118.118 100.87 116.343 101.028 106.431C101.106 101.496 101.264 96.9942 101.421 96.5181C101.776 95.4359 101.264 95.1329 98.3891 94.8299C97.1289 94.7 95.7899 94.8299 94.8842 95.2195Z" fill="white"/>
<path d="M145.055 95.0463C143.283 95.4792 143.244 95.609 143.756 97.7734C143.992 98.8555 144.15 103.054 144.15 107.21C144.11 115.607 143.638 118.508 141.866 121.018C140.527 122.923 138.676 126.429 138.676 127.078C138.676 128.55 140.999 131.061 143.992 132.749C152.932 137.857 157.342 143.527 158.918 151.881C159.272 153.699 159.548 155.69 159.548 156.297V157.379H166.282H173.055L172.78 154.998C172.071 148.375 169.235 144.523 162.383 140.843C157.027 137.986 155.294 136.731 154.586 135.259C153.995 134.004 153.837 130.974 154.349 130.974C154.783 130.974 157.106 127.035 157.618 125.39C157.894 124.568 158.406 123.572 158.799 123.139C160.138 121.667 160.65 117.209 159.548 116.473C159.39 116.343 159.508 115.348 159.823 114.222C160.532 111.712 160.296 106.604 159.351 103.617C158.681 101.583 156.476 98.9421 155.413 98.9421C155.137 98.9421 154.074 98.1629 153.089 97.2106C150.569 94.8299 148.245 94.2239 145.055 95.0463Z" fill="white"/>
</svg>
