<svg width="246" height="246" viewBox="0 0 246 246" fill="none" xmlns="http://www.w3.org/2000/svg">
<path d="M183.806 61.3893C191.851 69.4343 198.232 78.9852 202.586 89.4967C206.94 100.008 209.181 111.274 209.181 122.652C209.181 134.029 206.94 145.295 202.586 155.807C198.232 166.318 191.851 175.869 183.806 183.914L122.543 122.652L183.806 61.3893Z" fill="#9CD9B3"/>
<path d="M183.806 183.914C175.761 191.959 166.21 198.341 155.698 202.695C145.187 207.049 133.921 209.29 122.543 209.29C111.166 209.29 99.8997 207.049 89.3883 202.695C78.8769 198.341 69.326 191.959 61.2809 183.914L122.543 122.652L183.806 183.914Z" fill="#82C59B"/>
<path d="M61.2809 183.914C45.0331 167.666 35.9052 145.629 35.9052 122.652C35.9052 99.6738 45.0331 77.637 61.2809 61.3893L122.543 122.652L61.2809 183.914Z" fill="#9CD9B3"/>
<path d="M61.2809 61.3893C69.326 53.3442 78.8769 46.9624 89.3883 42.6085C99.8997 38.2545 111.166 36.0136 122.543 36.0136C133.921 36.0136 145.187 38.2545 155.698 42.6085C166.21 46.9625 175.761 53.3442 183.806 61.3893L122.543 122.652L61.2809 61.3893Z" fill="#B4E0C5"/>
<path d="M98.0957 87.6188C97.6852 87.7948 97.0401 88.2053 96.6882 88.5572C95.1047 90.0526 95.1634 88.6158 95.1634 118.877C95.1634 145.679 95.1927 147.028 95.7205 147.995C96.5122 149.52 97.8904 150.341 99.5912 150.341H101.028V148.875V147.409H100.06C98.3009 147.409 98.0957 146.852 98.0957 142.336V138.319H122.141H146.186V142.365C146.186 145.943 146.127 146.5 145.658 146.91C145.159 147.35 143.899 147.409 133.635 147.409H122.141V148.875V150.37L134.281 150.283C145.98 150.195 146.479 150.165 147.241 149.608C147.681 149.286 148.268 148.552 148.561 147.995C149.089 147.028 149.118 145.679 149.118 118.789V90.6098L148.444 89.6421C148.092 89.1143 147.417 88.3812 146.977 88.0587C146.156 87.4429 145.98 87.4429 122.493 87.3842C107.157 87.3549 98.5649 87.4429 98.0957 87.6188ZM111.584 99.3188V102.251H108.652H105.72V99.3188V96.3865H108.652H111.584V99.3188ZM111.584 112.954V116.033H108.652H105.72V112.954V109.875H108.652H111.584V112.954ZM111.584 126.443V129.522H108.652H105.72V126.443V123.364H108.652H111.584V126.443Z" fill="white"/>
<path d="M104.253 149.315C104.253 155.355 104.341 157.085 104.635 157.085C104.811 157.056 106.482 156.294 108.329 155.326L111.672 153.625L115.455 155.502L119.208 157.379V149.461V141.544H111.731H104.253V149.315Z" fill="white"/>
</svg>
