<svg width="246" height="246" viewBox="0 0 246 246" fill="none" xmlns="http://www.w3.org/2000/svg">
<path d="M184.403 61.3893C192.448 69.4343 198.83 78.9852 203.184 89.4967C207.538 100.008 209.779 111.274 209.779 122.652C209.779 134.029 207.538 145.295 203.184 155.807C198.83 166.318 192.448 175.869 184.403 183.914L123.14 122.652L184.403 61.3893Z" fill="#E4E682"/>
<path d="M184.403 183.914C176.358 191.959 166.807 198.341 156.295 202.695C145.784 207.049 134.518 209.29 123.14 209.29C111.763 209.29 100.497 207.049 89.9855 202.695C79.4741 198.341 69.9232 191.959 61.8781 183.914L123.14 122.652L184.403 183.914Z" fill="#D3D572"/>
<path d="M61.8781 183.914C45.6303 167.666 36.5024 145.629 36.5024 122.652C36.5024 99.6738 45.6303 77.637 61.8781 61.3893L123.14 122.652L61.8781 183.914Z" fill="#E4E682"/>
<path d="M61.8781 61.3893C69.9232 53.3442 79.4741 46.9624 89.9855 42.6085C100.497 38.2545 111.763 36.0136 123.14 36.0136C134.518 36.0136 145.784 38.2545 156.295 42.6085C166.807 46.9625 176.358 53.3442 184.403 61.3893L123.14 122.652L61.8781 61.3893Z" fill="#EDEEA4"/>
<path d="M100.177 87.5897C99.5205 87.7291 98.9956 88.1473 98.9956 88.3565C98.9956 89.0535 130.357 122.651 130.947 122.651C131.275 122.651 134.096 119.863 137.311 116.448L143.085 110.244L137.311 106.828C105.622 87.9382 103.129 86.6835 100.177 87.5897Z" fill="white"/>
<path d="M94.797 93.0265C94.6001 93.6538 94.4033 107.386 94.4033 123.557C94.4033 151.858 94.4689 153.043 95.7155 155.273C96.4372 156.598 97.2901 157.504 97.6182 157.365C97.9462 157.225 104.507 150.533 112.315 142.448L126.421 127.809L111.462 110.104C103.261 100.346 96.2404 92.2597 95.8467 92.1203C95.5187 92.0506 95.0594 92.3991 94.797 93.0265Z" fill="white"/>
<path d="M140.921 119.584C137.903 123.279 135.279 126.555 135.147 126.973C134.885 127.809 142.299 135.895 143.349 135.895C145.251 135.895 154.83 129.413 155.749 127.531C156.995 124.952 156.995 121.745 155.749 119.166C154.896 117.423 148.663 112.893 147.088 112.893C146.695 112.893 143.939 115.89 140.921 119.584Z" fill="white"/>
<path d="M120.909 143.354C115.792 149.418 111.724 154.507 111.789 154.576C112.052 154.925 136.393 140.496 136.393 140.008C136.393 139.799 135.015 137.986 133.309 135.965L130.16 132.271L120.909 143.354Z" fill="white"/>
</svg>
