<svg width="246" height="246" viewBox="0 0 246 246" fill="none" xmlns="http://www.w3.org/2000/svg">
<path d="M184.122 61.3893C192.167 69.4343 198.548 78.9852 202.902 89.4967C207.256 100.008 209.497 111.274 209.497 122.652C209.497 134.029 207.256 145.295 202.902 155.807C198.548 166.318 192.167 175.869 184.122 183.914L122.859 122.652L184.122 61.3893Z" fill="#D9C7F7"/>
<path d="M184.122 183.914C176.076 191.959 166.526 198.341 156.014 202.695C145.503 207.049 134.237 209.29 122.859 209.29C111.482 209.29 100.216 207.049 89.7042 202.695C79.1928 198.341 69.6419 191.959 61.5968 183.914L122.859 122.652L184.122 183.914Z" fill="#C6ABF0"/>
<path d="M61.5968 183.914C45.349 167.666 36.2211 145.629 36.2211 122.652C36.2211 99.6738 45.349 77.637 61.5968 61.3893L122.859 122.652L61.5968 183.914Z" fill="#D9C7F7"/>
<path d="M61.5968 61.3893C69.6419 53.3442 79.1928 46.9624 89.7042 42.6085C100.216 38.2545 111.482 36.0136 122.859 36.0136C134.237 36.0136 145.503 38.2545 156.014 42.6085C166.526 46.9625 176.076 53.3442 184.122 61.3893L122.859 122.652L61.5968 61.3893Z" fill="#E2D1FF"/>
<path d="M101.491 93.6625C89.7524 95.3875 80.9395 107.501 83.2646 118.751C84.0146 122.314 86.2272 126.702 89.3774 130.939C92.1151 134.577 103.366 146.053 114.691 156.741C120.654 162.366 121.892 163.379 122.867 163.379C123.842 163.379 125.079 162.404 130.855 156.928C142.705 145.753 153.318 134.915 156.318 130.864C162.544 122.539 164.119 116.276 161.831 108.813C159.956 102.738 154.556 97.0376 148.481 94.75C140.53 91.7874 132.692 93.6625 126.017 100.15L122.867 103.188L119.754 100.15C117.354 97.7877 115.966 96.7751 113.491 95.5751C109.178 93.4749 106.066 92.9874 101.491 93.6625Z" fill="white"/>
</svg>
