<svg width="222" height="21" viewBox="0 0 222 21" fill="none" xmlns="http://www.w3.org/2000/svg">
<path d="M12.0944 20.7147L5.4864 12.0347V20.7147H0.698402V1.05867H5.4864V9.68267L12.0384 1.05867H17.6664L10.0504 10.6907L17.9464 20.7147H12.0944ZM32.4578 17.2427H25.1218L23.9458 20.7147H18.9338L26.0458 1.05867H31.5898L38.7018 20.7147H33.6338L32.4578 17.2427ZM31.2258 13.5467L28.7898 6.35067L26.3818 13.5467H31.2258ZM58.4504 20.7147H53.6624L45.6544 8.59067V20.7147H40.8664V1.05867H45.6544L53.6624 13.2387V1.05867H58.4504V20.7147ZM73.3171 20.7147L66.7091 12.0347V20.7147H61.9211V1.05867H66.7091V9.68267L73.2611 1.05867H78.8891L71.2731 10.6907L79.1691 20.7147H73.3171ZM90.7405 20.9107C88.8925 20.9107 87.1938 20.4813 85.6445 19.6227C84.1138 18.764 82.8912 17.5693 81.9765 16.0387C81.0805 14.4893 80.6325 12.7533 80.6325 10.8307C80.6325 8.908 81.0805 7.18133 81.9765 5.65067C82.8912 4.12 84.1138 2.92533 85.6445 2.06667C87.1938 1.208 88.8925 0.778668 90.7405 0.778668C92.5885 0.778668 94.2778 1.208 95.8085 2.06667C97.3578 2.92533 98.5712 4.12 99.4485 5.65067C100.344 7.18133 100.792 8.908 100.792 10.8307C100.792 12.7533 100.344 14.4893 99.4485 16.0387C98.5525 17.5693 97.3392 18.764 95.8085 19.6227C94.2778 20.4813 92.5885 20.9107 90.7405 20.9107ZM90.7405 16.5427C92.3085 16.5427 93.5592 16.02 94.4925 14.9747C95.4445 13.9293 95.9205 12.548 95.9205 10.8307C95.9205 9.09467 95.4445 7.71333 94.4925 6.68667C93.5592 5.64133 92.3085 5.11867 90.7405 5.11867C89.1538 5.11867 87.8845 5.632 86.9325 6.65867C85.9992 7.68533 85.5325 9.076 85.5325 10.8307C85.5325 12.5667 85.9992 13.9573 86.9325 15.0027C87.8845 16.0293 89.1538 16.5427 90.7405 16.5427ZM117.596 1.05867V4.89467H112.388V20.7147H107.6V4.89467H102.392V1.05867H117.596ZM130.023 20.7147L125.935 13.2947H124.787V20.7147H119.999V1.05867H128.035C129.585 1.05867 130.901 1.32933 131.983 1.87067C133.085 2.412 133.906 3.15867 134.447 4.11067C134.989 5.044 135.259 6.08933 135.259 7.24667C135.259 8.55333 134.886 9.72 134.139 10.7467C133.411 11.7733 132.329 12.5013 130.891 12.9307L135.427 20.7147H130.023ZM124.787 9.90667H127.755C128.633 9.90667 129.286 9.692 129.715 9.26267C130.163 8.83333 130.387 8.22667 130.387 7.44267C130.387 6.696 130.163 6.108 129.715 5.67867C129.286 5.24933 128.633 5.03467 127.755 5.03467H124.787V9.90667ZM143.053 1.05867V20.7147H138.265V1.05867H143.053ZM173.571 1.05867L168.447 20.7147H162.651L159.515 7.77867L156.267 20.7147H150.471L145.487 1.05867H150.611L153.439 15.3667L156.939 1.05867H162.203L165.563 15.3667L168.419 1.05867H173.571ZM188.208 17.2427H180.872L179.696 20.7147H174.684L181.796 1.05867H187.34L194.452 20.7147H189.384L188.208 17.2427ZM186.976 13.5467L184.54 6.35067L182.132 13.5467H186.976ZM201.404 17.0187H207.676V20.7147H196.616V1.05867H201.404V17.0187ZM214.748 4.89467V8.87067H221.16V12.5667H214.748V16.8787H222V20.7147H209.96V1.05867H222V4.89467H214.748Z" fill="#97C5A9"/>
</svg>
